<?xml version="1.0" encoding="UTF-8"?>
<!-- noto sans bold -->
<svg width="28.152mm" height="10.583mm" version="1.1" viewBox="0 0 28.152 10.583" xmlns="http://www.w3.org/2000/svg">
<g transform="translate(88.513 -46.328)">
<g transform="translate(-137.67 -96.079)" fill="#ffd42a" stroke-width=".26458" aria-label="bople">
<path d="m61.103 147.55q0 1.4393-0.762 2.2225-0.75141 0.78317-2.0532 0.78317-0.80433 0-1.4393-0.34925-0.62442-0.34925-0.98425-1.016-0.35983-0.67733-0.35983-1.6404 0-1.4393 0.75141-2.2119 0.75142-0.77258 2.0637-0.77258 0.81491 0 1.4393 0.34925 0.62441 0.34925 0.98425 1.016 0.35983 0.66675 0.35983 1.6192zm-3.9899 0q0 0.85725 0.27516 1.3018 0.28575 0.43391 0.92075 0.43391 0.62442 0 0.89958-0.43391 0.28575-0.4445 0.28575-1.3018t-0.28575-1.2806q-0.27517-0.43391-0.91016-0.43391-0.62441 0-0.91016 0.43391-0.27516 0.42333-0.27516 1.2806z" fill="#ffd42a" opacity=".4" stroke-width=".26458"/>
<path d="m50.732 142.41v1.8732q0 0.32808-0.02117 0.64558t-0.04233 0.49742h0.0635q0.23283-0.35984 0.62442-0.60325 0.39158-0.254 1.016-0.254 0.97366 0 1.5769 0.762 0.60325 0.75141 0.60325 2.2225 0 1.4817-0.61383 2.2437-0.61383 0.762-1.6087 0.762-0.635 0-1.0054-0.22225-0.35983-0.23284-0.59266-0.51858h-0.10583l-0.26458 0.63499h-1.2065v-8.0433zm1.1324 3.4184q-0.61383 0-0.86783 0.39158-0.254 0.381-0.26458 1.1536v0.16934q0 0.83608 0.24342 1.2912 0.254 0.4445 0.91016 0.4445 0.48683 0 0.77258-0.4445 0.28575-0.45508 0.28575-1.3018 0-0.84666-0.29633-1.27-0.28575-0.43392-0.78316-0.43392z"/>
<path d="m61.103 149.98q0 1.4393-0.762 2.2225-0.75141 0.78317-2.0532 0.78317-0.80433 0-1.4393-0.34925-0.62442-0.34925-0.98425-1.016-0.35983-0.67733-0.35983-1.6404 0-1.4393 0.75141-2.2119 0.75142-0.77258 2.0637-0.77258 0.81491 0 1.4393 0.34925 0.62441 0.34925 0.98425 1.016 0.35983 0.66675 0.35983 1.6192zm-3.9899 0q0 0.85725 0.27516 1.3018 0.28575 0.43391 0.92075 0.43391 0.62442 0 0.89958-0.43391 0.28575-0.4445 0.28575-1.3018t-0.28575-1.2806q-0.27517-0.43391-0.91016-0.43391-0.62441 0-0.91016 0.43391-0.27516 0.42333-0.27516 1.2806z"/>
<path d="m65.622 144.57q0.97366 0 1.5769 0.762 0.60325 0.75141 0.60325 2.2225 0 1.4817-0.62442 2.2437t-1.5981 0.762q-0.62442 0-0.99483-0.22225-0.37042-0.23284-0.60325-0.51858h-0.08467q0.08467 0.44449 0.08467 0.84666v2.3283h-1.5769v-8.3185h1.2806l0.22225 0.75142h0.07408q0.23283-0.34925 0.62442-0.60325t1.016-0.254zm-0.508 1.2594q-0.61383 0-0.86783 0.39158-0.254 0.381-0.26458 1.1536v0.16934q0 0.83608 0.24342 1.2912 0.254 0.4445 0.91016 0.4445 0.53975 0 0.79375-0.4445 0.26458-0.45508 0.26458-1.3018 0-1.7039-1.0795-1.7039z"/>
<path d="m70.681 150.45h-1.5769v-8.0433h1.5769z"/>
<path d="m74.714 144.57q1.1959 0 1.8944 0.68791 0.6985 0.67733 0.6985 1.9368v0.762h-3.7253q0.02117 0.66674 0.39158 1.0477 0.381 0.381 1.0477 0.381 0.55033 0 1.0054-0.10583 0.46566-0.11642 0.9525-0.34925v1.2171q-0.43392 0.21166-0.89958 0.30691-0.46567 0.10584-1.1324 0.10584-0.86783 0-1.5346-0.3175-0.66675-0.32808-1.0477-0.97367-0.381-0.65616-0.381-1.6616 0-1.0054 0.33866-1.6828 0.34925-0.67733 0.96308-1.016 0.61383-0.33866 1.4287-0.33866zm0.01058 1.1218q-0.46566 0-0.762 0.29633-0.29633 0.29633-0.34925 0.92075h2.2119q-0.01058-0.51858-0.28575-0.86783-0.26458-0.34925-0.81491-0.34925z"/>
</g>
</g>
</svg>
